<svg height="414pt" viewBox="0 -51 414 414" width="414pt" xmlns="http://www.w3.org/2000/svg" xmlns:xlink="http://www.w3.org/1999/xlink"><linearGradient id="a" gradientUnits="userSpaceOnUse" x1="207" x2="207" y1="410.242" y2="-97.405"><stop offset=".322" stop-color="#a163f5"/><stop offset=".466" stop-color="#b074ee"/><stop offset=".752" stop-color="#d8a1dd"/><stop offset=".898" stop-color="#efbad3"/></linearGradient><path d="m367 0h-320c-25.945312.0273438-46.9726562 21.054688-47 47v217.140625c.0273438 25.945313 21.054688 46.972656 47 47h320c25.945312-.027344 46.972656-21.054687 47-47v-217.140625c-.027344-25.945312-21.054688-46.9726562-47-47zm-320 14h320c17.074219.023438 31.320312 13.050781 32.863281 30.058594l-171.464843 145.421875c-12.289063 10.480469-30.371094 10.488281-42.667969.015625l-171.597657-145.300782c1.46875-17.0625 15.738282-30.171874 32.867188-30.195312zm0 283.140625c-7.222656.007813-14.246094-2.367187-19.980469-6.757813l95.699219-97.886718c1.773438-1.785156 2.453125-4.382813 1.78125-6.804688-.671875-2.425781-2.589844-4.300781-5.027344-4.917968-2.441406-.617188-5.023437.121093-6.765625 1.9375l-94.808593 96.972656c-2.5625-4.777344-3.902344-10.117188-3.898438-15.542969v-201.710937l162.683594 137.753906c17.515625 14.910156 43.265625 14.902344 60.769531-.027344l162.546875-137.859375v201.84375c.007812 5.445313-1.34375 10.804687-3.925781 15.59375l-95.375-97.039063c-2.714844-2.734374-7.125-2.761718-9.875-.0625-2.746094 2.703126-2.796875 7.113282-.109375 9.875l96.226562 97.90625c-5.730468 4.371094-12.734375 6.734376-19.941406 6.726563zm0 0" fill="url(#a)"/></svg>